<svg id="Group_227" data-name="Group 227" xmlns="http://www.w3.org/2000/svg" width="63.363" height="103.337" viewBox="0 0 63.363 103.337">
  <path id="Path_1" data-name="Path 1" d="M197.026,200.127a2.484,2.484,0,1,0,4.525-1.411,6.984,6.984,0,0,1,3.978,1.962.779.779,0,0,0,1.1-1.1c-2.322-2.322-5.692-3.069-9.748-2.158a20.879,20.879,0,0,0-5.35,2.034.779.779,0,0,0,.781,1.348,19.755,19.755,0,0,1,5.023-1.876A2.468,2.468,0,0,0,197.026,200.127Zm2.484.926a.925.925,0,1,1,.926-.926A.927.927,0,0,1,199.51,201.052Z" transform="translate(-180.011 -164.731)"/>
  <path id="Path_2" data-name="Path 2" d="M332.334,199.453a20.873,20.873,0,0,0-5.35-2.034c-4.055-.911-7.425-.165-9.748,2.158a.779.779,0,0,0,1.1,1.1,6.984,6.984,0,0,1,3.978-1.962,2.484,2.484,0,1,0,4.214.21,19.748,19.748,0,0,1,5.023,1.875.779.779,0,0,0,.781-1.348Zm-7.977,1.6a.925.925,0,1,1,.926-.926A.927.927,0,0,1,324.357,201.052Z" transform="translate(-280.492 -164.731)"/>
  <path id="Path_3" data-name="Path 3" d="M193.185,174.82l7.9,1.259a.779.779,0,0,0,.245-1.539l-8.2-1.306a.773.773,0,0,0-.544.114l-6.582,4.226a.779.779,0,1,0,.842,1.312Z" transform="translate(-175.626 -145.717)"/>
  <path id="Path_4" data-name="Path 4" d="M334.889,177.574l-6.582-4.226a.774.774,0,0,0-.543-.114l-8.2,1.306a.779.779,0,0,0,.245,1.539l7.9-1.259,6.332,4.065a.779.779,0,1,0,.842-1.312Z" transform="translate(-282.012 -145.717)"/>
  <path id="Path_5" data-name="Path 5" d="M261.886,282.486a.78.78,0,0,0,.512.976l2.181.68,2.06,2.252a.779.779,0,0,0,.575.253h1.853a.779.779,0,0,0,.575-.253l2.06-2.252,2.181-.68a.779.779,0,1,0-.464-1.488l-2.382.742a.779.779,0,0,0-.343.218l-1.971,2.154h-1.166l-1.971-2.154a.779.779,0,0,0-.343-.218l-2.382-.742A.779.779,0,0,0,261.886,282.486Z" transform="translate(-236.458 -232.509)"/>
  <path id="Path_6" data-name="Path 6" d="M199.068,76.907,195.7,73.532a81.377,81.377,0,0,0-.242-8.716c-.695-8.167-2.612-13.873-5.7-16.96-7.117-7.117-14.98-11.036-22.141-11.036h-.007c-7.161,0-15.025,3.919-22.142,11.036-3.086,3.087-5,8.793-5.7,16.96a81.4,81.4,0,0,0-.242,8.715l-3.369,3.375a.778.778,0,0,0-.211.708l1.4,6.744-.161,7.1a.78.78,0,0,0,.455.726l1.689.772-.083,2.55a.782.782,0,0,0,.105.417l1.153,1.983-.866,8.353a.772.772,0,0,0,.018.264l1.465,6.026-1.806,8.431a.779.779,0,0,0,.132.622l4.047,5.566,3.091,7.093a.779.779,0,0,0,.513.441l20.31,5.428a.778.778,0,0,0,.4,0l20.317-5.428a.779.779,0,0,0,.513-.441l3.09-7.093,4.048-5.566a.779.779,0,0,0,.132-.622L194.1,112.55l1.465-6.026a.778.778,0,0,0,.018-.264l-.866-8.353,1.153-1.983a.779.779,0,0,0,.105-.417l-.083-2.547,1.7-.775a.779.779,0,0,0,.455-.726l-.161-7.1,1.4-6.744A.779.779,0,0,0,199.068,76.907Zm-2.728,7.223a.789.789,0,0,0-.016.176l.151,6.676-.636.291-.251-7.751a.779.779,0,0,0-1.537-.156l-4.774,19.919-11.108,8.745a.74.74,0,0,0-.064.057l-2.663,2.618-4.11-2.187a.78.78,0,0,0-.634-.044l-3.093,1.132-3.085-1.132a.774.774,0,0,0-.634.043l-4.11,2.187-2.663-2.618a.78.78,0,0,0-.064-.057l-11.108-8.745L141.17,83.365a.779.779,0,0,0-1.537.156l-.251,7.748-.629-.287.152-6.676a.789.789,0,0,0-.016-.176l-1.328-6.42,2.053-2.056c.011.2.02.334.024.39v3.711a.779.779,0,0,0,1.558,0V76.017c0-.019,0-.039,0-.057-.015-.2-1.41-20.212,5.379-27,6.823-6.823,14.295-10.58,21.04-10.58h.007c6.745,0,14.217,3.758,21.039,10.58,6.785,6.785,5.394,26.8,5.379,27,0,.019,0,.038,0,.057v3.738a.779.779,0,0,0,1.558,0V76.044c0-.056.013-.189.024-.389l2.051,2.055Z" transform="translate(-135.933 -36.82)"/>
  <path id="Path_7" data-name="Path 7" d="M242.024,310.7a.78.78,0,0,0-.346-.5l-10.769-6.8a.779.779,0,0,0-.872.027l-2.292,1.652a.779.779,0,0,0-.3.441l-.169.668-.169-.668a.779.779,0,0,0-.3-.441l-2.292-1.652a.779.779,0,0,0-.872-.027l-10.769,6.8a.78.78,0,0,0-.346.5l-1.844,8.682a.779.779,0,0,0,1.441.544l3.792-6.728,6.912-3.056h8.894l6.912,3.056,3.792,6.728a.78.78,0,0,0,.679.4h.017a.779.779,0,0,0,.725-1.036Z" transform="translate(-195.597 -249.545)"/>
  <path id="Path_8" data-name="Path 8" d="M259.145,351.421l-3.734-.583c-.025,0-.049-.007-.074-.008l-6.716-.4c-.017,0-.033,0-.05,0s-.032,0-.049,0l-6.716.4c-.025,0-.05,0-.074.008l-3.734.583a.779.779,0,0,0,.119,1.549.79.79,0,0,0,.121-.01l3.7-.577,6.636-.392,6.636.392,3.7.577a.791.791,0,0,0,.121.01.779.779,0,0,0,.119-1.549Z" transform="translate(-216.89 -287.19)"/>
  <path id="Path_9" data-name="Path 9" d="M272.947,373.136a.78.78,0,0,0-.579-.5l-4.8-.961a.517.517,0,0,0-.156-.015c-.041.007-.1,0-.157.015l-4.8.961a.779.779,0,0,0-.579.5l-.884,2.42a.779.779,0,0,0,.411.977l5.686,2.574a.738.738,0,0,0,.157.05.794.794,0,0,0,.172.019.782.782,0,0,0,.322-.069l5.686-2.574a.779.779,0,0,0,.411-.977Z" transform="translate(-235.732 -304.139)"/>
</svg>
